<svg xmlns="http://www.w3.org/2000/svg" viewBox="0 0 100 100">
  <!-- Background circle -->
  <circle cx="50" cy="50" r="50" fill="#E08FF1"/>

  <!-- White bubble -->
  <g transform="translate(15.3 16.5) scale(0.1816)">
    <path d="M338.13 124.68C340.34 117.08 341.54 109.06 341.54 100.76C341.54 53.37 302.98 14.81 255.59 14.81C239.97 14.81 225.33 19.02 212.7 26.33C197.05 10.11 175.13 0 150.88 0C103.48 0 64.92 38.56 64.92 85.95C64.92 86.01 64.93 86.07 64.93 86.13C27.66 95.54 0 129.33 0 169.47C0 201.31 17.41 229.13 43.19 243.99C40.99 251.59 39.78 259.61 39.78 267.91C39.78 315.3 78.34 353.86 125.73 353.86C141.39 353.86 156.07 349.63 168.73 342.28C184.37 358.45 206.25 368.52 230.47 368.52C277.86 368.52 316.42 329.97 316.42 282.57V282.53C353.67 273.12 381.33 239.33 381.33 199.2C381.33 167.36 363.92 139.53 338.13 124.68Z" fill="white"/>
  </g>

  <!-- Pink cross icon -->
  <svg x="27" y="27" width="46" height="46" viewBox="0 0 24 24" fill="#E08FF1">
    <path d="M8,2 L16,2 L16,8 L22,8 L22,16 L16,16 L16,22 L8,22 L8,16 L2,16 L2,8 L8,8 Z"/>
  </svg>
</svg>
